<svg width="31" height="26" viewBox="0 0 31 26" fill="none" xmlns="http://www.w3.org/2000/svg">
<path d="M27.0069 0H3.25236C2.38978 0 1.56253 0.342659 0.952595 0.952595C0.342659 1.56253 0 2.38978 0 3.25236L0 10.4615C0.00125256 11.3232 0.344464 12.1493 0.954265 12.7582C1.56407 13.3671 2.3906 13.7091 3.25236 13.7091H27.0069C27.8679 13.7078 28.6932 13.3653 29.302 12.7565C29.9107 12.1477 30.2533 11.3224 30.2545 10.4615V3.25236C30.2545 2.3906 29.9125 1.56407 29.3036 0.954265C28.6947 0.344464 27.8687 0.00125256 27.0069 0ZM28.3636 10.4615C28.3624 10.8209 28.2191 11.1653 27.9649 11.4194C27.7107 11.6736 27.3664 11.8169 27.0069 11.8182H3.25236C2.8921 11.8182 2.54652 11.6754 2.29134 11.4211C2.03615 11.1668 1.89216 10.8217 1.89091 10.4615V3.25236C1.89091 2.89128 2.03435 2.54499 2.28967 2.28967C2.54499 2.03435 2.89128 1.89091 3.25236 1.89091H27.0069C27.3672 1.89216 27.7122 2.03615 27.9666 2.29134C28.2209 2.54652 28.3636 2.8921 28.3636 3.25236V10.4615Z" fill="#1E1E1E"/>
<path d="M24.3457 8.50879H5.90932C5.65857 8.50879 5.41809 8.6084 5.24078 8.78571C5.06348 8.96301 4.96387 9.20349 4.96387 9.45424C4.96387 9.70499 5.06348 9.94547 5.24078 10.1228C5.41809 10.3001 5.65857 10.3997 5.90932 10.3997H24.3457C24.5964 10.3997 24.8369 10.3001 25.0142 10.1228C25.1915 9.94547 25.2911 9.70499 25.2911 9.45424C25.2911 9.20349 25.1915 8.96301 25.0142 8.78571C24.8369 8.6084 24.5964 8.50879 24.3457 8.50879Z" fill="#1E1E1E"/>
<path d="M25.5274 4.72685C26.0495 4.72685 26.4728 4.30355 26.4728 3.78139C26.4728 3.25923 26.0495 2.83594 25.5274 2.83594C25.0052 2.83594 24.5819 3.25923 24.5819 3.78139C24.5819 4.30355 25.0052 4.72685 25.5274 4.72685Z" fill="#1E1E1E"/>
<path d="M19.3816 14.6548C19.1309 14.6548 18.8904 14.7544 18.7131 14.9317C18.5358 15.109 18.4362 15.3495 18.4362 15.6002V22.4548C18.4362 23.156 18.6441 23.8415 19.0337 24.4245C19.4233 25.0076 19.977 25.462 20.6248 25.7304C21.2727 25.9987 21.9855 26.0689 22.6733 25.9321C23.361 25.7953 23.9928 25.4576 24.4886 24.9618C24.9845 24.466 25.3221 23.8342 25.4589 23.1465C25.5957 22.4587 25.5255 21.7458 25.2572 21.098C24.9888 20.4502 24.5344 19.8964 23.9514 19.5068C23.3683 19.1173 22.6828 18.9093 21.9816 18.9093C21.7309 18.9093 21.4904 19.0089 21.3131 19.1862C21.1358 19.3636 21.0362 19.604 21.0362 19.8548C21.0362 20.1055 21.1358 20.346 21.3131 20.5233C21.4904 20.7006 21.7309 20.8002 21.9816 20.8002C22.3089 20.8002 22.6287 20.8973 22.9008 21.0791C23.1729 21.2609 23.385 21.5193 23.5102 21.8216C23.6354 22.1239 23.6682 22.4566 23.6044 22.7776C23.5405 23.0985 23.3829 23.3933 23.1516 23.6247C22.9202 23.8561 22.6253 24.0137 22.3044 24.0775C21.9834 24.1414 21.6508 24.1086 21.3484 23.9834C21.0461 23.8582 20.7877 23.6461 20.6059 23.374C20.4241 23.1019 20.3271 22.782 20.3271 22.4548V15.6002C20.3271 15.3495 20.2275 15.109 20.0501 14.9317C19.8728 14.7544 19.6324 14.6548 19.3816 14.6548Z" fill="#1E1E1E"/>
<path d="M13.2366 20.5875V15.6002C13.2366 15.3495 13.137 15.109 12.9597 14.9317C12.7824 14.7544 12.5419 14.6548 12.2911 14.6548C12.0404 14.6548 11.7999 14.7544 11.6226 14.9317C11.4453 15.109 11.3457 15.3495 11.3457 15.6002V20.5875C11.3457 20.8383 11.2461 21.0787 11.0688 21.2561C10.8915 21.4334 10.651 21.533 10.4002 21.533C10.1495 21.533 9.90901 21.4334 9.7317 21.2561C9.55439 21.0787 9.45478 20.8383 9.45478 20.5875C9.45478 20.3368 9.35517 20.0963 9.17787 19.919C9.00056 19.7417 8.76008 19.6421 8.50933 19.6421C8.25858 19.6421 8.0181 19.7417 7.84079 19.919C7.66348 20.0963 7.56387 20.3368 7.56387 20.5875C7.56387 21.3398 7.8627 22.0612 8.39462 22.5931C8.92655 23.125 9.64799 23.4239 10.4002 23.4239C11.1525 23.4239 11.8739 23.125 12.4058 22.5931C12.9378 22.0612 13.2366 21.3398 13.2366 20.5875Z" fill="#1E1E1E"/>
<path d="M16.5458 20.3275V15.6002C16.5458 15.3495 16.4461 15.109 16.2688 14.9317C16.0915 14.7544 15.8511 14.6548 15.6003 14.6548C15.3496 14.6548 15.1091 14.7544 14.9318 14.9317C14.7545 15.109 14.6548 15.3495 14.6548 15.6002V20.3275C14.6548 20.5783 14.7545 20.8187 14.9318 20.9961C15.1091 21.1734 15.3496 21.273 15.6003 21.273C15.8511 21.273 16.0915 21.1734 16.2688 20.9961C16.4461 20.8187 16.5458 20.5783 16.5458 20.3275Z" fill="#1E1E1E"/>
</svg>
