<svg width="26" height="26" viewBox="0 0 26 26" fill="none" xmlns="http://www.w3.org/2000/svg">
<path d="M17.632 15.2959L14.0069 12.577V7.03873C14.0069 6.48186 13.5568 6.03174 12.9999 6.03174C12.443 6.03174 11.9929 6.48186 11.9929 7.03873V13.0806C11.9929 13.3978 12.142 13.6969 12.3957 13.8862L16.4236 16.9071C16.6048 17.043 16.8163 17.1085 17.0268 17.1085C17.3339 17.1085 17.636 16.9705 17.8334 16.7047C18.1678 16.2606 18.0771 15.6292 17.632 15.2959Z" fill="black"/>
<path d="M13 0C5.83136 0 0 5.83136 0 13C0 20.1686 5.83136 26 13 26C20.1686 26 26 20.1686 26 13C26 5.83136 20.1686 0 13 0ZM13 23.9861C6.94307 23.9861 2.01393 19.0569 2.01393 13C2.01393 6.94307 6.94307 2.01393 13 2.01393C19.0579 2.01393 23.9861 6.94307 23.9861 13C23.9861 19.0569 19.0569 23.9861 13 23.9861Z" fill="black"/>
</svg>
