<svg width="26" height="26" viewBox="0 0 26 26" fill="none" xmlns="http://www.w3.org/2000/svg">
<path d="M12.9881 5.32442C12.9911 5.63047 12.8139 5.96436 12.4615 6.31678C12.164 6.61426 12.164 7.09653 12.4615 7.394C12.7589 7.69148 13.2412 7.69153 13.5387 7.394C14.1913 6.74141 14.5186 6.04007 14.5114 5.30954C14.5045 4.59464 14.1772 3.90838 13.5387 3.26991C13.1863 2.91749 13.0091 2.5836 13.012 2.27754C13.015 1.9756 13.1922 1.64679 13.5387 1.30031C13.8362 1.00283 13.8362 0.520564 13.5387 0.223088C13.2412 -0.0743881 12.7589 -0.0743373 12.4615 0.223088C11.8229 0.861611 11.4957 1.54782 11.4887 2.26277C11.4816 2.9933 11.8089 3.69464 12.4615 4.34723C12.808 4.69366 12.9852 5.02247 12.9881 5.32442Z" fill="#1E1E1E"/>
<path d="M20.6053 5.32442C20.6083 5.63047 20.4311 5.96436 20.0787 6.31678C19.7812 6.61426 19.7812 7.09653 20.0787 7.394C20.3761 7.69148 20.8584 7.69153 21.1559 7.394C21.8085 6.74141 22.1357 6.04007 22.1286 5.30954C22.1217 4.59464 21.7943 3.90838 21.1559 3.26991C20.8034 2.91749 20.6263 2.5836 20.6292 2.27754C20.6322 1.9756 20.8093 1.64679 21.1559 1.30031C21.4533 1.00283 21.4533 0.520564 21.1559 0.223088C20.8584 -0.0743881 20.3761 -0.0743373 20.0787 0.223088C19.4401 0.861611 19.1128 1.54782 19.1059 2.26277C19.0988 2.9933 19.4261 3.69464 20.0787 4.34723C20.4252 4.69366 20.6024 5.02247 20.6053 5.32442Z" fill="#1E1E1E"/>
<path d="M5.37096 5.32442C5.37395 5.63047 5.19673 5.96436 4.84431 6.31678C4.54683 6.61426 4.54683 7.09653 4.84431 7.394C5.14173 7.69148 5.62405 7.69153 5.92153 7.394C6.57417 6.74141 6.9014 6.04007 6.89429 5.30954C6.88733 4.59464 6.56 3.90838 5.92153 3.26991C5.56911 2.91749 5.39193 2.5836 5.39488 2.27754C5.39782 1.9756 5.575 1.64679 5.92153 1.30031C6.219 1.00283 6.219 0.520564 5.92153 0.223088C5.624 -0.0743881 5.14178 -0.0743373 4.84431 0.223088C4.20584 0.86156 3.87855 1.54782 3.87154 2.26272C3.86443 2.99325 4.19172 3.69459 4.84431 4.34718C5.19084 4.69366 5.36801 5.02247 5.37096 5.32442Z" fill="#1E1E1E"/>
<path d="M16.2821 6.31678C15.9847 6.61426 15.9847 7.09653 16.2821 7.394C16.5796 7.69148 17.0619 7.69153 17.3594 7.394C18.012 6.74141 18.3392 6.04007 18.3321 5.30954C18.3251 4.59464 17.9978 3.90838 17.3594 3.26991C17.0069 2.91749 16.8298 2.5836 16.8327 2.27754C16.8357 1.9756 17.0128 1.64679 17.3594 1.30031C17.6568 1.00283 17.6568 0.520564 17.3594 0.223088C17.0618 -0.0743881 16.5796 -0.0743373 16.2821 0.223088C15.6436 0.861611 15.3163 1.54782 15.3094 2.26277C15.3023 2.9933 15.6296 3.69464 16.2821 4.34723C16.9816 5.04664 16.9816 5.61727 16.2821 6.31678Z" fill="#1E1E1E"/>
<path d="M9.1675 5.32449C9.17049 5.63054 8.99327 5.96443 8.64085 6.31685C8.34337 6.61433 8.34337 7.0966 8.64085 7.39407C8.93827 7.69155 9.42059 7.6916 9.71807 7.39407C10.3707 6.74148 10.6979 6.04015 10.6908 5.30961C10.6839 4.59471 10.3565 3.90845 9.71807 3.26998C9.01861 2.57047 9.01861 1.99984 9.71807 1.30033C10.0155 1.00285 10.0155 0.520584 9.71807 0.223107C9.42064 -0.0743691 8.93832 -0.0743691 8.64085 0.223107C8.00232 0.861579 7.67504 1.54784 7.66808 2.26273C7.66097 2.99327 7.98826 3.69461 8.64085 4.3472C8.98738 4.69373 9.16455 5.02254 9.1675 5.32449Z" fill="#1E1E1E"/>
<path d="M25.2382 12.1875H24.4257V11.4258C24.4257 10.1657 23.4006 9.14062 22.1406 9.14062C20.8806 9.14062 19.8554 10.1657 19.8554 11.4258V12.1875H18.332V11.4258C18.332 10.1657 17.3069 9.14062 16.0468 9.14062C14.7868 9.14062 13.7617 10.1657 13.7617 11.4258V12.1875H12.2383V11.4258C12.2383 10.1657 11.2131 9.14062 9.95311 9.14062C8.69307 9.14062 7.66795 10.1657 7.66795 11.4258V12.1875H6.14452V11.4258C6.14452 10.1657 5.1194 9.14062 3.85937 9.14062C2.59933 9.14062 1.57422 10.1657 1.57422 11.4258V12.1875H0.761717C0.341046 12.1875 0 12.5285 0 12.9492C0 13.3699 0.341046 13.7109 0.761717 13.7109H1.57422V23.7148C1.57422 24.9749 2.59933 26 3.85937 26C5.1194 26 6.14452 24.9749 6.14452 23.7148V13.7109H7.66795V23.7148C7.66795 24.9749 8.69307 26 9.95311 26C11.2131 26 12.2383 24.9749 12.2383 23.7148V13.7109H13.7617V23.7148C13.7617 24.9749 14.7868 26 16.0468 26C17.3069 26 18.332 24.9749 18.332 23.7148V13.7109H19.8554V23.7148C19.8554 24.9749 20.8806 26 22.1406 26C23.4006 26 24.4257 24.9749 24.4257 23.7148V13.7109H25.2382C25.6589 13.7109 26 13.3699 26 12.9492C26 12.5285 25.6589 12.1875 25.2382 12.1875ZM4.62109 23.7148C4.62109 24.1348 4.27938 24.4765 3.85937 24.4765C3.43936 24.4765 3.09765 24.1348 3.09765 23.7148V11.4258C3.09765 11.0058 3.43936 10.6641 3.85937 10.6641C4.27938 10.6641 4.62109 11.0058 4.62109 11.4258V23.7148ZM10.7148 23.7148C10.7148 24.1348 10.3731 24.4765 9.95311 24.4765C9.5331 24.4765 9.19139 24.1348 9.19139 23.7148V11.4258C9.19139 11.0058 9.5331 10.6641 9.95311 10.6641C10.3731 10.6641 10.7148 11.0058 10.7148 11.4258V23.7148ZM16.8086 23.7148C16.8086 24.1348 16.4669 24.4765 16.0468 24.4765C15.6268 24.4765 15.2851 24.1348 15.2851 23.7148V11.4258C15.2851 11.0058 15.6268 10.6641 16.0468 10.6641C16.4669 10.6641 16.8086 11.0058 16.8086 11.4258V23.7148ZM22.9023 23.7148C22.9023 24.1348 22.5606 24.4765 22.1406 24.4765C21.7206 24.4765 21.3789 24.1348 21.3789 23.7148V11.4258C21.3789 11.0058 21.7206 10.6641 22.1406 10.6641C22.5606 10.6641 22.9023 11.0058 22.9023 11.4258V23.7148Z" fill="#1E1E1E"/>
</svg>
