<svg width="28" height="28" viewBox="0 0 28 28" fill="none" xmlns="http://www.w3.org/2000/svg">
<path d="M1 14C1 8.21158 1 5.31737 2.63937 3.39884C2.87291 3.12516 3.12607 2.872 3.39884 2.63937C5.31737 1 8.21158 1 14 1C19.7884 1 22.6826 1 24.6012 2.63937C24.8748 2.87291 25.128 3.12607 25.3606 3.39884C27 5.31737 27 8.21158 27 14C27 19.7884 27 22.6826 25.3606 24.6012C25.1271 24.8748 24.8739 25.128 24.6012 25.3606C22.6826 27 19.7884 27 14 27C8.21158 27 5.31737 27 3.39884 25.3606C3.12516 25.1271 2.872 24.8739 2.63937 24.6012C1 22.6826 1 19.7884 1 14Z" stroke="#1E1E1E" stroke-width="2" stroke-linecap="round" stroke-linejoin="round"/>
<path d="M8.70286 13.4499L14.1752 6.07414C14.6035 5.49666 15.4054 5.85519 15.4054 6.62424V12.3333C15.4054 12.7931 15.7201 13.1667 16.1088 13.1667H18.769C19.3738 13.1667 19.6968 14.0123 19.2972 14.5501L13.8249 21.9259C13.3965 22.5034 12.5946 22.1449 12.5946 21.3758V15.6668C12.5946 15.207 12.2799 14.8334 11.8913 14.8334H9.23107C8.6276 14.8334 8.30465 13.9877 8.70423 13.4499" stroke="#1E1E1E" stroke-width="2" stroke-linecap="round" stroke-linejoin="round"/>
</svg>
