<svg width="19" height="18" viewBox="0 0 19 18" fill="none" xmlns="http://www.w3.org/2000/svg">
<path d="M0.3 6H4.05V18H0.3V6ZM2.175 0C3.375 0 4.35 0.975 4.35 2.175C4.35 3.375 3.375 4.35 2.175 4.35C0.975 4.35 0 3.375 0 2.175C0 0.975 0.975 0 2.175 0Z" fill="#A0A0A0"/>
<path d="M6.375 5.99995H9.975V7.64995H10.05C10.575 6.67495 11.775 5.69995 13.575 5.69995C17.325 5.69995 18.075 8.17495 18.075 11.4V18H14.325V12.15C14.325 10.725 14.325 8.92495 12.375 8.92495C10.425 8.92495 10.125 10.425 10.125 12V18H6.375V5.99995Z" fill="#A0A0A0"/>
</svg>
