<svg width="212" height="29" viewBox="0 0 212 29" fill="none" xmlns="http://www.w3.org/2000/svg">
<path d="M4.256 10.252C3.07067 10.252 2.17 9.958 1.554 9.37C0.938 8.782 0.63 7.96067 0.63 6.906V0.298H2.926V6.808C2.926 7.97467 3.36933 8.558 4.256 8.558C4.676 8.558 4.99333 8.42267 5.208 8.152C5.42267 7.872 5.53 7.47533 5.53 6.962C5.53 6.58867 5.48333 6.27133 5.39 6.01C5.306 5.74867 5.17067 5.45467 4.984 5.128C4.788 4.764 4.63867 4.43733 4.536 4.148C4.44267 3.84933 4.396 3.48067 4.396 3.042H6.678C6.69667 3.322 6.748 3.574 6.832 3.798C6.92533 4.022 7.056 4.28333 7.224 4.582C7.448 4.99267 7.62067 5.37067 7.742 5.716C7.86333 6.052 7.924 6.46733 7.924 6.962C7.924 7.61533 7.77467 8.194 7.476 8.698C7.17733 9.19267 6.75267 9.57533 6.202 9.846C5.65133 10.1167 5.00267 10.252 4.256 10.252ZM13.6452 0.298C13.6545 0.811333 13.7572 1.27333 13.9532 1.684C14.1585 2.09467 14.4619 2.58933 14.8632 3.168C15.1712 3.60667 15.4185 3.98467 15.6052 4.302C15.7919 4.61 15.9459 4.96933 16.0672 5.38C16.1979 5.79067 16.2632 6.23867 16.2632 6.724C16.2632 7.44267 16.1092 8.068 15.8012 8.6C15.4932 9.132 15.0545 9.54267 14.4852 9.832C13.9252 10.112 13.2672 10.252 12.5112 10.252C11.7552 10.252 11.0972 10.1073 10.5372 9.818C9.97719 9.52867 9.54785 9.12267 9.24919 8.6C8.95985 8.07733 8.81519 7.47067 8.81519 6.78C8.81519 6.024 9.02052 5.28667 9.43119 4.568L11.4052 5.254C11.2092 5.73933 11.1112 6.248 11.1112 6.78C11.1112 7.33067 11.2232 7.76467 11.4472 8.082C11.6805 8.39933 12.0352 8.558 12.5112 8.558C12.9779 8.558 13.3185 8.40867 13.5332 8.11C13.7479 7.81133 13.8552 7.396 13.8552 6.864C13.8552 6.304 13.7572 5.828 13.5612 5.436C13.3745 5.03467 13.0852 4.56333 12.6932 4.022C12.3945 3.602 12.1519 3.23333 11.9652 2.916C11.7785 2.59867 11.6199 2.22533 11.4892 1.796C11.3679 1.35733 11.3072 0.858 11.3072 0.298H13.6452ZM23.973 0.298V7.158C23.973 8.082 23.6697 8.82867 23.063 9.398C22.4657 9.96733 21.6257 10.252 20.543 10.252C19.8337 10.252 19.2224 10.126 18.709 9.874C18.205 9.61267 17.8224 9.272 17.561 8.852C17.2997 8.432 17.169 7.97933 17.169 7.494C17.169 7.08333 17.267 6.682 17.463 6.29L19.479 6.794C19.423 7.018 19.395 7.228 19.395 7.424C19.395 7.75067 19.4884 8.02133 19.675 8.236C19.8617 8.45067 20.151 8.558 20.543 8.558C21.299 8.558 21.677 8.10533 21.677 7.2V3.7C21.3317 3.40133 20.949 3.252 20.529 3.252C20.193 3.252 19.941 3.336 19.773 3.504C19.6144 3.672 19.535 3.89133 19.535 4.162C19.535 4.358 19.5724 4.57733 19.647 4.82L17.701 5.212C17.4864 4.81067 17.379 4.39533 17.379 3.966C17.379 3.518 17.4864 3.112 17.701 2.748C17.9157 2.384 18.2144 2.09933 18.597 1.894C18.9797 1.67933 19.4044 1.572 19.871 1.572C20.2164 1.572 20.5477 1.63267 20.865 1.754C21.1824 1.866 21.453 2.01533 21.677 2.202V0.298H23.973ZM30.0241 0.298C30.0334 0.811333 30.1361 1.27333 30.3321 1.684C30.5374 2.09467 30.8408 2.58933 31.2421 3.168C31.5501 3.60667 31.7974 3.98467 31.9841 4.302C32.1708 4.61 32.3248 4.96933 32.4461 5.38C32.5768 5.79067 32.6421 6.23867 32.6421 6.724C32.6421 7.44267 32.4881 8.068 32.1801 8.6C31.8721 9.132 31.4334 9.54267 30.8641 9.832C30.3041 10.112 29.6461 10.252 28.8901 10.252C28.1341 10.252 27.4761 10.1073 26.9161 9.818C26.3561 9.52867 25.9268 9.12267 25.6281 8.6C25.3388 8.07733 25.1941 7.47067 25.1941 6.78C25.1941 6.024 25.3994 5.28667 25.8101 4.568L27.7841 5.254C27.5881 5.73933 27.4901 6.248 27.4901 6.78C27.4901 7.33067 27.6021 7.76467 27.8261 8.082C28.0594 8.39933 28.4141 8.558 28.8901 8.558C29.3568 8.558 29.6974 8.40867 29.9121 8.11C30.1268 7.81133 30.2341 7.396 30.2341 6.864C30.2341 6.304 30.1361 5.828 29.9401 5.436C29.7534 5.03467 29.4641 4.56333 29.0721 4.022C28.7734 3.602 28.5308 3.23333 28.3441 2.916C28.1574 2.59867 27.9988 2.22533 27.8681 1.796C27.7468 1.35733 27.6861 0.858 27.6861 0.298H30.0241ZM34.4299 10C34.1593 9.42133 33.9446 8.80067 33.7859 8.138C33.6273 7.466 33.5479 6.682 33.5479 5.786C33.5479 4.806 33.6646 3.98 33.8979 3.308C34.1406 2.636 34.5746 2.08067 35.1999 1.642C35.8346 1.194 36.7259 0.885999 37.8739 0.717999C38.6486 0.596666 39.2646 0.489333 39.7219 0.395999C40.1886 0.293333 40.5666 0.176666 40.8559 0.0459996L41.5979 1.516C41.2993 1.73067 40.8793 1.91733 40.3379 2.076C39.8059 2.23467 39.1759 2.342 38.4479 2.398C37.5613 2.482 36.9079 2.622 36.4879 2.818C36.0679 3.00467 35.7739 3.266 35.6059 3.602C35.9513 3.294 36.3946 3.14 36.9359 3.14C37.4119 3.14 37.8133 3.28 38.1399 3.56C38.4759 3.83067 38.6999 4.23667 38.8119 4.778C38.9333 4.23667 39.1946 3.83067 39.5959 3.56C39.9973 3.28 40.5059 3.14 41.1219 3.14C42.0179 3.14 42.7319 3.41533 43.2639 3.966C43.7959 4.50733 44.0619 5.33333 44.0619 6.444C44.0619 7.12533 43.9826 7.74133 43.8239 8.292C43.6746 8.83333 43.4599 9.40267 43.1799 10H41.0239C41.2759 9.30933 41.4626 8.712 41.5839 8.208C41.7053 7.704 41.7659 7.158 41.7659 6.57C41.7659 5.40333 41.4253 4.82 40.7439 4.82C40.1746 4.82 39.8899 5.198 39.8899 5.954V8.11H37.7339V5.954C37.7339 5.55267 37.6546 5.26333 37.4959 5.086C37.3373 4.90867 37.1319 4.82 36.8799 4.82C36.5346 4.82 36.2733 4.96 36.0959 5.24C35.9279 5.52 35.8439 5.95867 35.8439 6.556C35.8439 7.16267 35.9046 7.72267 36.0259 8.236C36.1473 8.74933 36.3339 9.33733 36.5859 10H34.4299ZM53.9093 0.0599995C54.9266 0.0599995 55.72 0.424 56.2893 1.152C56.8586 1.88 57.1433 3.00467 57.1433 4.526C57.1433 5.72067 57.0406 6.738 56.8353 7.578C56.6393 8.418 56.3733 9.22533 56.0373 10H53.7413C54.096 9.188 54.3573 8.37133 54.5253 7.55C54.7026 6.71933 54.7913 5.74867 54.7913 4.638C54.7913 3.58333 54.67 2.83667 54.4273 2.398C54.194 1.95933 53.858 1.74 53.4193 1.74C52.9713 1.74 52.5746 1.908 52.2293 2.244C52.5186 3.028 52.6633 4.008 52.6633 5.184C52.6633 6.976 52.3413 8.26867 51.6973 9.062C51.0533 9.85533 50.12 10.252 48.8973 10.252C47.656 10.252 46.718 9.85067 46.0833 9.048C45.4486 8.236 45.1313 6.94333 45.1313 5.17C45.1313 3.38733 45.4486 2.09 46.0833 1.278C46.718 0.466 47.656 0.0599995 48.8973 0.0599995C50.0266 0.0599995 50.89 0.377333 51.4873 1.012C52.15 0.377333 52.9573 0.0599995 53.9093 0.0599995ZM48.8973 8.558C49.2333 8.558 49.4993 8.45533 49.6953 8.25C49.8913 8.03533 50.036 7.68533 50.1293 7.2C50.2226 6.71467 50.2693 6.04267 50.2693 5.184C50.2693 4.316 50.2226 3.63467 50.1293 3.14C50.036 2.636 49.8913 2.27667 49.6953 2.062C49.4993 1.84733 49.2333 1.74 48.8973 1.74C48.5613 1.74 48.2953 1.84267 48.0993 2.048C47.9033 2.244 47.7586 2.58933 47.6653 3.084C47.572 3.57867 47.5253 4.274 47.5253 5.17C47.5253 6.05667 47.572 6.74267 47.6653 7.228C47.7586 7.71333 47.9033 8.05867 48.0993 8.264C48.2953 8.46 48.5613 8.558 48.8973 8.558ZM63.224 4.792C63.9053 4.904 64.428 5.17 64.792 5.59C65.1653 6.00067 65.352 6.53733 65.352 7.2C65.352 7.76933 65.2073 8.28733 64.918 8.754C64.6287 9.21133 64.2087 9.57533 63.658 9.846C63.1167 10.1167 62.4727 10.252 61.726 10.252C60.9887 10.252 60.354 10.1213 59.822 9.86C59.2993 9.58933 58.898 9.23 58.618 8.782C58.3473 8.334 58.212 7.83467 58.212 7.284C58.212 6.752 58.3427 6.248 58.604 5.772L60.62 6.332C60.5173 6.59333 60.466 6.892 60.466 7.228C60.466 7.62933 60.564 7.95133 60.76 8.194C60.9653 8.43667 61.2873 8.558 61.726 8.558C62.1367 8.558 62.44 8.42733 62.636 8.166C62.8413 7.90467 62.944 7.55467 62.944 7.116C62.944 6.09867 62.51 5.59 61.642 5.59H61.11L61.376 3.98H61.67C62.0153 3.98 62.2813 3.882 62.468 3.686C62.6547 3.49 62.748 3.21 62.748 2.846C62.748 2.49133 62.6547 2.21133 62.468 2.006C62.2907 1.80067 62.034 1.698 61.698 1.698C61.3433 1.698 61.0727 1.79133 60.886 1.978C60.7087 2.16467 60.62 2.426 60.62 2.762C60.62 2.91133 60.648 3.07933 60.704 3.266L58.576 3.672C58.4173 3.29867 58.338 2.93 58.338 2.566C58.338 2.09 58.4733 1.66533 58.744 1.292C59.0147 0.909333 59.402 0.610666 59.906 0.395999C60.4193 0.171999 61.0167 0.0599995 61.698 0.0599995C62.37 0.0599995 62.9627 0.181333 63.476 0.424C63.9893 0.657333 64.386 0.974666 64.666 1.376C64.946 1.768 65.086 2.202 65.086 2.678C65.086 3.21933 64.932 3.672 64.624 4.036C64.316 4.4 63.8493 4.652 63.224 4.792ZM69.8624 0.0599995C70.5344 0.0599995 71.1224 0.181333 71.6264 0.424C72.1397 0.666666 72.5364 1.012 72.8164 1.46C73.1057 1.908 73.2504 2.43533 73.2504 3.042V7.102C73.2504 7.70867 73.1151 8.25 72.8444 8.726C72.5737 9.19267 72.1771 9.566 71.6544 9.846C71.1317 10.1167 70.4971 10.252 69.7504 10.252C69.0411 10.252 68.4251 10.1167 67.9024 9.846C67.3797 9.57533 66.9784 9.202 66.6984 8.726C66.4184 8.25 66.2784 7.72267 66.2784 7.144C66.2784 6.556 66.4324 5.982 66.7404 5.422L68.7424 6.024C68.6211 6.32267 68.5604 6.682 68.5604 7.102C68.5604 7.54067 68.6584 7.89533 68.8544 8.166C69.0597 8.42733 69.3584 8.558 69.7504 8.558C70.5437 8.558 70.9404 8.07733 70.9404 7.116V2.972C70.9404 2.57067 70.8471 2.26733 70.6604 2.062C70.4737 1.84733 70.2077 1.74 69.8624 1.74C69.5171 1.74 69.2511 1.838 69.0644 2.034C68.8871 2.22067 68.7984 2.46333 68.7984 2.762C68.7984 3.042 68.8451 3.322 68.9384 3.602L66.8104 3.98C66.6051 3.54133 66.5024 3.12133 66.5024 2.72C66.5024 2.19733 66.6424 1.73533 66.9224 1.334C67.2024 0.932666 67.5944 0.619999 68.0984 0.395999C68.6117 0.171999 69.1997 0.0599995 69.8624 0.0599995ZM82.2551 10C82.0778 9.56133 81.7558 9.22533 81.2891 8.992C80.8225 8.75867 80.2391 8.642 79.5391 8.642C78.4751 8.642 77.4391 8.89867 76.4311 9.412L75.8431 7.886C76.0951 7.774 76.3891 7.68533 76.7251 7.62C77.0705 7.54533 77.4065 7.508 77.7331 7.508C77.0611 7.20933 76.4871 6.906 76.0111 6.598C75.5445 6.28067 75.1478 5.86067 74.8211 5.338C74.4945 4.806 74.3311 4.15267 74.3311 3.378C74.3311 2.26733 74.5878 1.43667 75.1011 0.886C75.6238 0.335333 76.3331 0.0599995 77.2291 0.0599995C78.4891 0.0599995 79.2405 0.596666 79.4831 1.67C79.5765 1.138 79.7865 0.736666 80.1131 0.465999C80.4398 0.195333 80.8738 0.0599995 81.4151 0.0599995C82.4978 0.0599995 83.1371 0.596666 83.3331 1.67C83.4265 1.14733 83.6598 0.750666 84.0331 0.48C84.4158 0.2 84.9105 0.0599995 85.5171 0.0599995C86.4318 0.0599995 87.1598 0.349333 87.7011 0.928C88.2425 1.49733 88.5131 2.35133 88.5131 3.49C88.5131 4.73133 88.1398 5.90267 87.3931 7.004L85.4191 6.08C85.6711 5.632 85.8485 5.21667 85.9511 4.834C86.0538 4.442 86.1051 3.98933 86.1051 3.476C86.1051 2.82267 86.0258 2.36533 85.8671 2.104C85.7178 1.84267 85.4938 1.712 85.1951 1.712C84.9431 1.712 84.7425 1.80067 84.5931 1.978C84.4531 2.146 84.3831 2.40267 84.3831 2.748V4.904H82.2271V2.748C82.2271 2.40267 82.1571 2.146 82.0171 1.978C81.8771 1.80067 81.6811 1.712 81.4291 1.712C81.1771 1.712 80.9765 1.80067 80.8271 1.978C80.6778 2.146 80.6031 2.40267 80.6031 2.748V4.904H78.4331V2.734C78.4331 2.36067 78.3631 2.09933 78.2231 1.95C78.0925 1.79133 77.9011 1.712 77.6491 1.712C77.0425 1.712 76.7391 2.244 76.7391 3.308C76.7391 4.008 76.8885 4.582 77.1871 5.03C77.4951 5.478 77.9058 5.828 78.4191 6.08C78.9325 6.332 79.5858 6.56067 80.3791 6.766C81.6671 7.09267 82.6658 7.50333 83.3751 7.998C84.0845 8.48333 84.4951 9.15067 84.6071 10H82.2551ZM90.6986 10C90.3532 9.216 90.0779 8.404 89.8726 7.564C89.6766 6.724 89.5786 5.71133 89.5786 4.526C89.5786 2.986 89.8539 1.85667 90.4046 1.138C90.9646 0.419333 91.7766 0.0599995 92.8406 0.0599995C93.4286 0.0599995 93.9186 0.204666 94.3106 0.494C94.7026 0.783333 94.9779 1.21733 95.1366 1.796C95.4632 0.638666 96.2706 0.0599995 97.5586 0.0599995C98.5572 0.0599995 99.3319 0.424 99.8826 1.152C100.433 1.88 100.709 3.00467 100.709 4.526C100.709 5.72067 100.611 6.74267 100.415 7.592C100.219 8.432 99.9526 9.23467 99.6166 10H97.3766C97.7032 9.16933 97.9506 8.34333 98.1186 7.522C98.2866 6.70067 98.3706 5.73933 98.3706 4.638C98.3706 3.56467 98.2772 2.81333 98.0906 2.384C97.9039 1.95467 97.6192 1.74 97.2366 1.74C96.9286 1.74 96.6906 1.84267 96.5226 2.048C96.3639 2.244 96.2846 2.57533 96.2846 3.042V7.144H94.0166V3.042C94.0166 2.174 93.7179 1.74 93.1206 1.74C92.8219 1.74 92.5839 1.83333 92.4066 2.02C92.2386 2.20667 92.1172 2.51 92.0426 2.93C91.9679 3.35 91.9306 3.91933 91.9306 4.638C91.9306 5.74867 92.0146 6.71933 92.1826 7.55C92.3506 8.37133 92.6026 9.188 92.9386 10H90.6986ZM105.578 10.252C104.393 10.252 103.492 9.958 102.876 9.37C102.26 8.782 101.952 7.96067 101.952 6.906V0.298H104.248V6.808C104.248 7.97467 104.692 8.558 105.578 8.558C105.998 8.558 106.316 8.42267 106.53 8.152C106.745 7.872 106.852 7.47533 106.852 6.962C106.852 6.58867 106.806 6.27133 106.712 6.01C106.628 5.74867 106.493 5.45467 106.306 5.128C106.11 4.764 105.961 4.43733 105.858 4.148C105.765 3.84933 105.718 3.48067 105.718 3.042H108C108.019 3.322 108.07 3.574 108.154 3.798C108.248 4.022 108.378 4.28333 108.546 4.582C108.77 4.99267 108.943 5.37067 109.064 5.716C109.186 6.052 109.246 6.46733 109.246 6.962C109.246 7.61533 109.097 8.194 108.798 8.698C108.5 9.19267 108.075 9.57533 107.524 9.846C106.974 10.1167 106.325 10.252 105.578 10.252ZM117.268 10.252C116.082 10.252 115.182 9.958 114.566 9.37C113.95 8.782 113.642 7.96067 113.642 6.906V0.298H115.938V6.808C115.938 7.97467 116.381 8.558 117.268 8.558C117.688 8.558 118.005 8.42267 118.22 8.152C118.434 7.872 118.542 7.47533 118.542 6.962C118.542 6.58867 118.495 6.27133 118.402 6.01C118.318 5.74867 118.182 5.45467 117.996 5.128C117.8 4.764 117.65 4.43733 117.548 4.148C117.454 3.84933 117.408 3.48067 117.408 3.042H119.69C119.708 3.322 119.76 3.574 119.844 3.798C119.937 4.022 120.068 4.28333 120.236 4.582C120.46 4.99267 120.632 5.37067 120.754 5.716C120.875 6.052 120.936 6.46733 120.936 6.962C120.936 7.61533 120.786 8.194 120.488 8.698C120.189 9.19267 119.764 9.57533 119.214 9.846C118.663 10.1167 118.014 10.252 117.268 10.252ZM121.841 5.408C121.841 4.12 122.177 3.06067 122.849 2.23C123.53 1.39933 124.487 0.881333 125.719 0.676L125.635 0.0459996H127.651L127.567 0.676C128.799 0.872 129.756 1.38533 130.437 2.216C131.128 3.03733 131.473 4.10133 131.473 5.408C131.473 6.37867 131.282 7.228 130.899 7.956C130.516 8.684 129.961 9.24867 129.233 9.65C128.514 10.042 127.656 10.238 126.657 10.238C125.658 10.238 124.795 10.0467 124.067 9.664C123.348 9.272 122.798 8.712 122.415 7.984C122.032 7.256 121.841 6.39733 121.841 5.408ZM124.193 5.408C124.193 6.48133 124.403 7.27467 124.823 7.788C125.252 8.30133 125.864 8.558 126.657 8.558C128.29 8.558 129.107 7.508 129.107 5.408C129.107 4.512 128.976 3.81667 128.715 3.322C128.454 2.818 128.062 2.44933 127.539 2.216C127.642 2.552 127.693 2.99067 127.693 3.532V5.982H125.607V3.574C125.607 3.07 125.654 2.622 125.747 2.23C125.224 2.46333 124.832 2.82733 124.571 3.322C124.319 3.81667 124.193 4.512 124.193 5.408ZM137.212 0.298C137.221 0.811333 137.324 1.27333 137.52 1.684C137.725 2.09467 138.028 2.58933 138.43 3.168C138.738 3.60667 138.985 3.98467 139.172 4.302C139.358 4.61 139.512 4.96933 139.634 5.38C139.764 5.79067 139.83 6.23867 139.83 6.724C139.83 7.44267 139.676 8.068 139.368 8.6C139.06 9.132 138.621 9.54267 138.052 9.832C137.492 10.112 136.834 10.252 136.078 10.252C135.322 10.252 134.664 10.1073 134.104 9.818C133.544 9.52867 133.114 9.12267 132.816 8.6C132.526 8.07733 132.382 7.47067 132.382 6.78C132.382 6.024 132.587 5.28667 132.998 4.568L134.972 5.254C134.776 5.73933 134.678 6.248 134.678 6.78C134.678 7.33067 134.79 7.76467 135.014 8.082C135.247 8.39933 135.602 8.558 136.078 8.558C136.544 8.558 136.885 8.40867 137.1 8.11C137.314 7.81133 137.422 7.396 137.422 6.864C137.422 6.304 137.324 5.828 137.128 5.436C136.941 5.03467 136.652 4.56333 136.26 4.022C135.961 3.602 135.718 3.23333 135.532 2.916C135.345 2.59867 135.186 2.22533 135.056 1.796C134.934 1.35733 134.874 0.858 134.874 0.298H137.212ZM140.735 5.408C140.735 4.12 141.071 3.06067 141.743 2.23C142.425 1.39933 143.381 0.881333 144.613 0.676L144.529 0.0459996H146.545L146.461 0.676C147.693 0.872 148.65 1.38533 149.331 2.216C150.022 3.03733 150.367 4.10133 150.367 5.408C150.367 6.37867 150.176 7.228 149.793 7.956C149.411 8.684 148.855 9.24867 148.127 9.65C147.409 10.042 146.55 10.238 145.551 10.238C144.553 10.238 143.689 10.0467 142.961 9.664C142.243 9.272 141.692 8.712 141.309 7.984C140.927 7.256 140.735 6.39733 140.735 5.408ZM143.087 5.408C143.087 6.48133 143.297 7.27467 143.717 7.788C144.147 8.30133 144.758 8.558 145.551 8.558C147.185 8.558 148.001 7.508 148.001 5.408C148.001 4.512 147.871 3.81667 147.609 3.322C147.348 2.818 146.956 2.44933 146.433 2.216C146.536 2.552 146.587 2.99067 146.587 3.532V5.982H144.501V3.574C144.501 3.07 144.548 2.622 144.641 2.23C144.119 2.46333 143.727 2.82733 143.465 3.322C143.213 3.81667 143.087 4.512 143.087 5.408ZM151.43 4.582C151.43 1.56733 152.676 0.0599995 155.168 0.0599995C156.353 0.0599995 157.268 0.428666 157.912 1.166C158.565 1.894 158.892 3.03267 158.892 4.582C158.892 6.67267 158.584 8.47867 157.968 10H155.77C156.022 9.19733 156.213 8.376 156.344 7.536C156.475 6.68667 156.54 5.72067 156.54 4.638C156.54 3.62067 156.433 2.88333 156.218 2.426C156.003 1.96867 155.653 1.74 155.168 1.74C154.664 1.74 154.305 1.95933 154.09 2.398C153.885 2.83667 153.782 3.58333 153.782 4.638C153.782 5.71133 153.847 6.67267 153.978 7.522C154.118 8.362 154.319 9.188 154.58 10H152.382C152.093 9.26267 151.859 8.46467 151.682 7.606C151.514 6.738 151.43 5.73 151.43 4.582ZM163.752 10.252C162.567 10.252 161.666 9.958 161.05 9.37C160.434 8.782 160.126 7.96067 160.126 6.906V0.298H162.422V6.808C162.422 7.97467 162.865 8.558 163.752 8.558C164.172 8.558 164.489 8.42267 164.704 8.152C164.919 7.872 165.026 7.47533 165.026 6.962C165.026 6.58867 164.979 6.27133 164.886 6.01C164.802 5.74867 164.667 5.45467 164.48 5.128C164.284 4.764 164.135 4.43733 164.032 4.148C163.939 3.84933 163.892 3.48067 163.892 3.042H166.174C166.193 3.322 166.244 3.574 166.328 3.798C166.421 4.022 166.552 4.28333 166.72 4.582C166.944 4.99267 167.117 5.37067 167.238 5.716C167.359 6.052 167.42 6.46733 167.42 6.962C167.42 7.61533 167.271 8.194 166.972 8.698C166.673 9.19267 166.249 9.57533 165.698 9.846C165.147 10.1167 164.499 10.252 163.752 10.252ZM168.325 5.408C168.325 4.12 168.661 3.06067 169.333 2.23C170.015 1.39933 170.971 0.881333 172.203 0.676L172.119 0.0459996H174.135L174.051 0.676C175.283 0.872 176.24 1.38533 176.921 2.216C177.612 3.03733 177.957 4.10133 177.957 5.408C177.957 6.37867 177.766 7.228 177.383 7.956C177.001 8.684 176.445 9.24867 175.717 9.65C174.999 10.042 174.14 10.238 173.141 10.238C172.143 10.238 171.279 10.0467 170.551 9.664C169.833 9.272 169.282 8.712 168.899 7.984C168.517 7.256 168.325 6.39733 168.325 5.408ZM170.677 5.408C170.677 6.48133 170.887 7.27467 171.307 7.788C171.737 8.30133 172.348 8.558 173.141 8.558C174.775 8.558 175.591 7.508 175.591 5.408C175.591 4.512 175.461 3.81667 175.199 3.322C174.938 2.818 174.546 2.44933 174.023 2.216C174.126 2.552 174.177 2.99067 174.177 3.532V5.982H172.091V3.574C172.091 3.07 172.138 2.622 172.231 2.23C171.709 2.46333 171.317 2.82733 171.055 3.322C170.803 3.81667 170.677 4.512 170.677 5.408ZM179.02 4.582C179.02 1.56733 180.266 0.0599995 182.758 0.0599995C183.943 0.0599995 184.858 0.428666 185.502 1.166C186.155 1.894 186.482 3.03267 186.482 4.582C186.482 6.67267 186.174 8.47867 185.558 10H183.36C183.612 9.19733 183.803 8.376 183.934 7.536C184.065 6.68667 184.13 5.72067 184.13 4.638C184.13 3.62067 184.023 2.88333 183.808 2.426C183.593 1.96867 183.243 1.74 182.758 1.74C182.254 1.74 181.895 1.95933 181.68 2.398C181.475 2.83667 181.372 3.58333 181.372 4.638C181.372 5.71133 181.437 6.67267 181.568 7.522C181.708 8.362 181.909 9.188 182.17 10H179.972C179.683 9.26267 179.449 8.46467 179.272 7.606C179.104 6.738 179.02 5.73 179.02 4.582ZM192.126 4.372C192.835 4.484 193.4 4.76867 193.82 5.226C194.24 5.68333 194.45 6.28533 194.45 7.032C194.45 7.63867 194.31 8.18933 194.03 8.684C193.75 9.16933 193.339 9.552 192.798 9.832C192.257 10.112 191.608 10.252 190.852 10.252C190.124 10.252 189.494 10.1167 188.962 9.846C188.43 9.57533 188.024 9.20667 187.744 8.74C187.473 8.27333 187.338 7.75533 187.338 7.186C187.338 6.598 187.478 6.052 187.758 5.548L189.76 6.122C189.639 6.43933 189.578 6.78 189.578 7.144C189.578 7.57333 189.681 7.91867 189.886 8.18C190.101 8.432 190.423 8.558 190.852 8.558C191.655 8.558 192.056 8.00733 192.056 6.906C192.056 6.35533 191.935 5.93067 191.692 5.632C191.449 5.33333 191.099 5.184 190.642 5.184H190.138L190.404 3.532H190.53C191.295 3.532 191.678 3.10733 191.678 2.258C191.678 1.63267 191.515 0.979333 191.188 0.298H193.302C193.759 0.960666 193.988 1.614 193.988 2.258C193.988 3.35 193.367 4.05467 192.126 4.372ZM195.454 4.582C195.454 1.56733 196.7 0.0599995 199.192 0.0599995C200.377 0.0599995 201.292 0.428666 201.936 1.166C202.589 1.894 202.916 3.03267 202.916 4.582C202.916 6.67267 202.608 8.47867 201.992 10H199.794C200.046 9.19733 200.237 8.376 200.368 7.536C200.498 6.68667 200.564 5.72067 200.564 4.638C200.564 3.62067 200.456 2.88333 200.242 2.426C200.027 1.96867 199.677 1.74 199.192 1.74C198.688 1.74 198.328 1.95933 198.114 2.398C197.908 2.83667 197.806 3.58333 197.806 4.638C197.806 5.71133 197.871 6.67267 198.002 7.522C198.142 8.362 198.342 9.188 198.604 10H196.406C196.116 9.26267 195.883 8.46467 195.706 7.606C195.538 6.738 195.454 5.73 195.454 4.582ZM207.776 10.252C206.59 10.252 205.69 9.958 205.074 9.37C204.458 8.782 204.15 7.96067 204.15 6.906V0.298H206.446V6.808C206.446 7.97467 206.889 8.558 207.776 8.558C208.196 8.558 208.513 8.42267 208.728 8.152C208.942 7.872 209.05 7.47533 209.05 6.962C209.05 6.58867 209.003 6.27133 208.91 6.01C208.826 5.74867 208.69 5.45467 208.504 5.128C208.308 4.764 208.158 4.43733 208.056 4.148C207.962 3.84933 207.916 3.48067 207.916 3.042H210.198C210.216 3.322 210.268 3.574 210.352 3.798C210.445 4.022 210.576 4.28333 210.744 4.582C210.968 4.99267 211.14 5.37067 211.262 5.716C211.383 6.052 211.444 6.46733 211.444 6.962C211.444 7.61533 211.294 8.194 210.996 8.698C210.697 9.19267 210.272 9.57533 209.722 9.846C209.171 10.1167 208.522 10.252 207.776 10.252ZM4.046 18.06C4.718 18.06 5.306 18.1813 5.81 18.424C6.32333 18.6667 6.72 19.012 7 19.46C7.28933 19.908 7.434 20.4353 7.434 21.042V25.102C7.434 25.7087 7.29867 26.25 7.028 26.726C6.75733 27.1927 6.36067 27.566 5.838 27.846C5.31533 28.1167 4.68067 28.252 3.934 28.252C3.22467 28.252 2.60867 28.1167 2.086 27.846C1.56333 27.5753 1.162 27.202 0.882 26.726C0.602 26.25 0.462 25.7227 0.462 25.144C0.462 24.556 0.616 23.982 0.924 23.422L2.926 24.024C2.80467 24.3227 2.744 24.682 2.744 25.102C2.744 25.5407 2.842 25.8953 3.038 26.166C3.24333 26.4273 3.542 26.558 3.934 26.558C4.72733 26.558 5.124 26.0773 5.124 25.116V20.972C5.124 20.5707 5.03067 20.2673 4.844 20.062C4.65733 19.8473 4.39133 19.74 4.046 19.74C3.70067 19.74 3.43467 19.838 3.248 20.034C3.07067 20.2207 2.982 20.4633 2.982 20.762C2.982 21.042 3.02867 21.322 3.122 21.602L0.994 21.98C0.788667 21.5413 0.686 21.1213 0.686 20.72C0.686 20.1973 0.826 19.7353 1.106 19.334C1.386 18.9327 1.778 18.62 2.282 18.396C2.79533 18.172 3.38333 18.06 4.046 18.06ZM9.39673 28C9.12607 27.4213 8.9114 26.8007 8.75273 26.138C8.59407 25.466 8.51473 24.682 8.51473 23.786C8.51473 22.806 8.6314 21.98 8.86473 21.308C9.1074 20.636 9.5414 20.0807 10.1667 19.642C10.8014 19.194 11.6927 18.886 12.8407 18.718C13.6154 18.5967 14.2314 18.4893 14.6887 18.396C15.1554 18.2933 15.5334 18.1767 15.8227 18.046L16.5647 19.516C16.2661 19.7307 15.8461 19.9173 15.3047 20.076C14.7727 20.2347 14.1427 20.342 13.4147 20.398C12.5281 20.482 11.8747 20.622 11.4547 20.818C11.0347 21.0047 10.7407 21.266 10.5727 21.602C10.9181 21.294 11.3614 21.14 11.9027 21.14C12.3787 21.14 12.7801 21.28 13.1067 21.56C13.4427 21.8307 13.6667 22.2367 13.7787 22.778C13.9001 22.2367 14.1614 21.8307 14.5627 21.56C14.9641 21.28 15.4727 21.14 16.0887 21.14C16.9847 21.14 17.6987 21.4153 18.2307 21.966C18.7627 22.5073 19.0287 23.3333 19.0287 24.444C19.0287 25.1253 18.9494 25.7413 18.7907 26.292C18.6414 26.8333 18.4267 27.4027 18.1467 28H15.9907C16.2427 27.3093 16.4294 26.712 16.5507 26.208C16.6721 25.704 16.7327 25.158 16.7327 24.57C16.7327 23.4033 16.3921 22.82 15.7107 22.82C15.1414 22.82 14.8567 23.198 14.8567 23.954V26.11H12.7007V23.954C12.7007 23.5527 12.6214 23.2633 12.4627 23.086C12.3041 22.9087 12.0987 22.82 11.8467 22.82C11.5014 22.82 11.2401 22.96 11.0627 23.24C10.8947 23.52 10.8107 23.9587 10.8107 24.556C10.8107 25.1627 10.8714 25.7227 10.9927 26.236C11.1141 26.7493 11.3007 27.3373 11.5527 28H9.39673ZM21.2181 28C20.8728 27.216 20.5974 26.404 20.3921 25.564C20.1961 24.724 20.0981 23.7113 20.0981 22.526C20.0981 20.986 20.3734 19.8567 20.9241 19.138C21.4841 18.4193 22.2961 18.06 23.3601 18.06C23.9481 18.06 24.4381 18.2047 24.8301 18.494C25.2221 18.7833 25.4974 19.2173 25.6561 19.796C25.9828 18.6387 26.7901 18.06 28.0781 18.06C29.0768 18.06 29.8514 18.424 30.4021 19.152C30.9528 19.88 31.2281 21.0047 31.2281 22.526C31.2281 23.7207 31.1301 24.7427 30.9341 25.592C30.7381 26.432 30.4721 27.2347 30.1361 28H27.8961C28.2228 27.1693 28.4701 26.3433 28.6381 25.522C28.8061 24.7007 28.8901 23.7393 28.8901 22.638C28.8901 21.5647 28.7968 20.8133 28.6101 20.384C28.4234 19.9547 28.1388 19.74 27.7561 19.74C27.4481 19.74 27.2101 19.8427 27.0421 20.048C26.8834 20.244 26.8041 20.5753 26.8041 21.042V25.144H24.5361V21.042C24.5361 20.174 24.2374 19.74 23.6401 19.74C23.3414 19.74 23.1034 19.8333 22.9261 20.02C22.7581 20.2067 22.6368 20.51 22.5621 20.93C22.4874 21.35 22.4501 21.9193 22.4501 22.638C22.4501 23.7487 22.5341 24.7193 22.7021 25.55C22.8701 26.3713 23.1221 27.188 23.4581 28H21.2181ZM37.3158 22.792C37.9971 22.904 38.5198 23.17 38.8838 23.59C39.2571 24.0007 39.4438 24.5373 39.4438 25.2C39.4438 25.7693 39.2991 26.2873 39.0098 26.754C38.7205 27.2113 38.3005 27.5753 37.7498 27.846C37.2085 28.1167 36.5645 28.252 35.8178 28.252C35.0805 28.252 34.4458 28.1213 33.9138 27.86C33.3911 27.5893 32.9898 27.23 32.7098 26.782C32.4391 26.334 32.3038 25.8347 32.3038 25.284C32.3038 24.752 32.4345 24.248 32.6958 23.772L34.7118 24.332C34.6091 24.5933 34.5578 24.892 34.5578 25.228C34.5578 25.6293 34.6558 25.9513 34.8518 26.194C35.0571 26.4367 35.3791 26.558 35.8178 26.558C36.2285 26.558 36.5318 26.4273 36.7278 26.166C36.9331 25.9047 37.0358 25.5547 37.0358 25.116C37.0358 24.0987 36.6018 23.59 35.7338 23.59H35.2018L35.4678 21.98H35.7618C36.1071 21.98 36.3731 21.882 36.5598 21.686C36.7465 21.49 36.8398 21.21 36.8398 20.846C36.8398 20.4913 36.7465 20.2113 36.5598 20.006C36.3825 19.8007 36.1258 19.698 35.7898 19.698C35.4351 19.698 35.1645 19.7913 34.9778 19.978C34.8005 20.1647 34.7118 20.426 34.7118 20.762C34.7118 20.9113 34.7398 21.0793 34.7958 21.266L32.6678 21.672C32.5091 21.2987 32.4298 20.93 32.4298 20.566C32.4298 20.09 32.5651 19.6653 32.8358 19.292C33.1065 18.9093 33.4938 18.6107 33.9978 18.396C34.5111 18.172 35.1085 18.06 35.7898 18.06C36.4618 18.06 37.0545 18.1813 37.5678 18.424C38.0811 18.6573 38.4778 18.9747 38.7578 19.376C39.0378 19.768 39.1778 20.202 39.1778 20.678C39.1778 21.2193 39.0238 21.672 38.7158 22.036C38.4078 22.4 37.9411 22.652 37.3158 22.792ZM44.7662 21.084C45.3729 21.084 45.9049 21.2287 46.3622 21.518C46.8289 21.8073 47.1882 22.2133 47.4402 22.736C47.7015 23.2493 47.8322 23.8373 47.8322 24.5C47.8322 25.6293 47.5102 26.5393 46.8662 27.23C46.2315 27.9113 45.3215 28.252 44.1362 28.252C42.9602 28.252 42.0642 27.93 41.4482 27.286C40.8415 26.642 40.5382 25.7507 40.5382 24.612V20.93C40.5382 19.9593 40.7949 19.25 41.3082 18.802C41.8309 18.3447 42.5029 18.116 43.3242 18.116C43.5949 18.116 44.0242 18.1487 44.6122 18.214C45.0415 18.27 45.3495 18.298 45.5362 18.298C45.9935 18.298 46.4275 18.2373 46.8382 18.116L47.0902 19.754C46.7075 19.9313 46.2455 20.02 45.7042 20.02C45.4429 20.02 45.1489 19.9873 44.8222 19.922C44.7662 19.9127 44.6355 19.894 44.4302 19.866C44.2342 19.838 44.0289 19.824 43.8142 19.824C43.4875 19.824 43.2402 19.8987 43.0722 20.048C42.9135 20.188 42.8342 20.412 42.8342 20.72V21.714C43.0489 21.5273 43.3242 21.378 43.6602 21.266C44.0055 21.1447 44.3742 21.084 44.7662 21.084ZM44.1362 26.572C44.5655 26.572 44.8922 26.4087 45.1162 26.082C45.3402 25.746 45.4522 25.2467 45.4522 24.584C45.4522 23.94 45.3449 23.464 45.1302 23.156C44.9155 22.848 44.5935 22.694 44.1642 22.694C43.9122 22.694 43.6695 22.7407 43.4362 22.834C43.2122 22.9273 43.0115 23.0533 42.8342 23.212V24.612C42.8342 25.228 42.9322 25.7087 43.1282 26.054C43.3335 26.3993 43.6695 26.572 44.1362 26.572ZM53.9594 18.06C54.7154 18.06 55.3174 18.284 55.7654 18.732C56.2227 19.1707 56.4514 19.7773 56.4514 20.552V25.13C56.4514 25.7273 56.3114 26.264 56.0314 26.74C55.7607 27.2067 55.3547 27.5753 54.8134 27.846C54.2814 28.1167 53.6327 28.252 52.8674 28.252C52.1301 28.252 51.4907 28.1167 50.9494 27.846C50.4174 27.566 50.0067 27.1927 49.7174 26.726C49.4374 26.25 49.2974 25.7133 49.2974 25.116C49.2974 24.5373 49.4561 23.9587 49.7734 23.38L51.7614 23.982C51.6307 24.3367 51.5654 24.7007 51.5654 25.074C51.5654 25.5313 51.6727 25.8953 51.8874 26.166C52.1021 26.4273 52.4287 26.558 52.8674 26.558C53.3061 26.558 53.6281 26.4227 53.8334 26.152C54.0481 25.872 54.1554 25.48 54.1554 24.976V20.65C54.1554 20.0433 53.9314 19.74 53.4834 19.74C53.0167 19.74 52.7834 20.0293 52.7834 20.608V22.316H50.6834V20.566C50.6834 20.118 50.4921 19.894 50.1094 19.894C50.0161 19.894 49.8947 19.9033 49.7454 19.922C49.5774 19.9407 49.4467 19.95 49.3534 19.95C49.0267 19.95 48.7514 19.8707 48.5274 19.712L48.8354 18.102C49.0127 18.158 49.1994 18.186 49.3954 18.186C49.5261 18.186 49.6614 18.172 49.8014 18.144C49.8481 18.144 49.9274 18.1393 50.0394 18.13C50.1514 18.1113 50.2541 18.102 50.3474 18.102C50.6834 18.102 50.9914 18.2093 51.2714 18.424C51.5514 18.6293 51.7474 18.9513 51.8594 19.39C52.0087 18.942 52.2654 18.6107 52.6294 18.396C52.9934 18.172 53.4367 18.06 53.9594 18.06ZM65.4661 28C65.2887 27.5613 64.9667 27.2253 64.5001 26.992C64.0334 26.7587 63.4501 26.642 62.7501 26.642C61.6861 26.642 60.6501 26.8987 59.6421 27.412L59.0541 25.886C59.3061 25.774 59.6001 25.6853 59.9361 25.62C60.2814 25.5453 60.6174 25.508 60.9441 25.508C60.2721 25.2093 59.6981 24.906 59.2221 24.598C58.7554 24.2807 58.3587 23.8607 58.0321 23.338C57.7054 22.806 57.5421 22.1527 57.5421 21.378C57.5421 20.2673 57.7987 19.4367 58.3121 18.886C58.8347 18.3353 59.5441 18.06 60.4401 18.06C61.7001 18.06 62.4514 18.5967 62.6941 19.67C62.7874 19.138 62.9974 18.7367 63.3241 18.466C63.6507 18.1953 64.0847 18.06 64.6261 18.06C65.7087 18.06 66.3481 18.5967 66.5441 19.67C66.6374 19.1473 66.8707 18.7507 67.2441 18.48C67.6267 18.2 68.1214 18.06 68.7281 18.06C69.6427 18.06 70.3707 18.3493 70.9121 18.928C71.4534 19.4973 71.7241 20.3513 71.7241 21.49C71.7241 22.7313 71.3507 23.9027 70.6041 25.004L68.6301 24.08C68.8821 23.632 69.0594 23.2167 69.1621 22.834C69.2647 22.442 69.3161 21.9893 69.3161 21.476C69.3161 20.8227 69.2367 20.3653 69.0781 20.104C68.9287 19.8427 68.7047 19.712 68.4061 19.712C68.1541 19.712 67.9534 19.8007 67.8041 19.978C67.6641 20.146 67.5941 20.4027 67.5941 20.748V22.904H65.4381V20.748C65.4381 20.4027 65.3681 20.146 65.2281 19.978C65.0881 19.8007 64.8921 19.712 64.6401 19.712C64.3881 19.712 64.1874 19.8007 64.0381 19.978C63.8887 20.146 63.8141 20.4027 63.8141 20.748V22.904H61.6441V20.734C61.6441 20.3607 61.5741 20.0993 61.4341 19.95C61.3034 19.7913 61.1121 19.712 60.8601 19.712C60.2534 19.712 59.9501 20.244 59.9501 21.308C59.9501 22.008 60.0994 22.582 60.3981 23.03C60.7061 23.478 61.1167 23.828 61.6301 24.08C62.1434 24.332 62.7967 24.5607 63.5901 24.766C64.8781 25.0927 65.8767 25.5033 66.5861 25.998C67.2954 26.4833 67.7061 27.1507 67.8181 28H65.4661ZM72.7895 22.582C72.7895 19.5673 74.0355 18.06 76.5275 18.06C77.7128 18.06 78.6275 18.4287 79.2715 19.166C79.9248 19.894 80.2515 21.0327 80.2515 22.582C80.2515 24.6727 79.9435 26.4787 79.3275 28H77.1295C77.3815 27.1973 77.5728 26.376 77.7035 25.536C77.8342 24.6867 77.8995 23.7207 77.8995 22.638C77.8995 21.6207 77.7922 20.8833 77.5775 20.426C77.3628 19.9687 77.0128 19.74 76.5275 19.74C76.0235 19.74 75.6642 19.9593 75.4495 20.398C75.2442 20.8367 75.1415 21.5833 75.1415 22.638C75.1415 23.7113 75.2068 24.6727 75.3375 25.522C75.4775 26.362 75.6782 27.188 75.9395 28H73.7415C73.4522 27.2627 73.2188 26.4647 73.0415 25.606C72.8735 24.738 72.7895 23.73 72.7895 22.582ZM88.4337 28.252C87.2484 28.252 86.3477 27.958 85.7317 27.37C85.1157 26.782 84.8077 25.9607 84.8077 24.906V18.298H87.1037V24.808C87.1037 25.9747 87.5471 26.558 88.4337 26.558C88.8537 26.558 89.1711 26.4227 89.3857 26.152C89.6004 25.872 89.7077 25.4753 89.7077 24.962C89.7077 24.5887 89.6611 24.2713 89.5677 24.01C89.4837 23.7487 89.3484 23.4547 89.1617 23.128C88.9657 22.764 88.8164 22.4373 88.7137 22.148C88.6204 21.8493 88.5737 21.4807 88.5737 21.042H90.8557C90.8744 21.322 90.9257 21.574 91.0097 21.798C91.1031 22.022 91.2337 22.2833 91.4017 22.582C91.6257 22.9927 91.7984 23.3707 91.9197 23.716C92.0411 24.052 92.1017 24.4673 92.1017 24.962C92.1017 25.6153 91.9524 26.194 91.6537 26.698C91.3551 27.1927 90.9304 27.5753 90.3797 27.846C89.8291 28.1167 89.1804 28.252 88.4337 28.252ZM97.8229 18.298C97.8323 18.8113 97.9349 19.2733 98.1309 19.684C98.3363 20.0947 98.6396 20.5893 99.0409 21.168C99.3489 21.6067 99.5963 21.9847 99.7829 22.302C99.9696 22.61 100.124 22.9693 100.245 23.38C100.376 23.7907 100.441 24.2387 100.441 24.724C100.441 25.4427 100.287 26.068 99.9789 26.6C99.6709 27.132 99.2323 27.5427 98.6629 27.832C98.1029 28.112 97.4449 28.252 96.6889 28.252C95.9329 28.252 95.2749 28.1073 94.7149 27.818C94.1549 27.5287 93.7256 27.1227 93.4269 26.6C93.1376 26.0773 92.9929 25.4707 92.9929 24.78C92.9929 24.024 93.1983 23.2867 93.6089 22.568L95.5829 23.254C95.3869 23.7393 95.2889 24.248 95.2889 24.78C95.2889 25.3307 95.4009 25.7647 95.6249 26.082C95.8583 26.3993 96.2129 26.558 96.6889 26.558C97.1556 26.558 97.4963 26.4087 97.7109 26.11C97.9256 25.8113 98.0329 25.396 98.0329 24.864C98.0329 24.304 97.9349 23.828 97.7389 23.436C97.5523 23.0347 97.2629 22.5633 96.8709 22.022C96.5723 21.602 96.3296 21.2333 96.1429 20.916C95.9563 20.5987 95.7976 20.2253 95.6669 19.796C95.5456 19.3573 95.4849 18.858 95.4849 18.298H97.8229ZM105.029 18.06C106.214 18.06 107.11 18.34 107.717 18.9C108.323 19.46 108.627 20.2207 108.627 21.182V24.64C108.627 25.7693 108.323 26.656 107.717 27.3C107.11 27.9347 106.219 28.252 105.043 28.252C103.848 28.252 102.929 27.916 102.285 27.244C101.65 26.5627 101.333 25.6667 101.333 24.556C101.333 23.912 101.463 23.3333 101.725 22.82C101.995 22.3067 102.369 21.9007 102.845 21.602C103.33 21.3033 103.876 21.154 104.483 21.154C104.856 21.154 105.201 21.21 105.519 21.322C105.845 21.434 106.116 21.5833 106.331 21.77V20.86C106.331 20.048 105.911 19.642 105.071 19.642C104.679 19.642 104.38 19.712 104.175 19.852C103.969 19.992 103.867 20.1833 103.867 20.426V20.51L101.669 20.678C101.631 20.566 101.613 20.4493 101.613 20.328C101.613 19.908 101.748 19.5253 102.019 19.18C102.289 18.8347 102.681 18.564 103.195 18.368C103.717 18.1627 104.329 18.06 105.029 18.06ZM105.029 26.572C105.897 26.572 106.331 25.928 106.331 24.64V23.268C105.967 22.9227 105.547 22.75 105.071 22.75C104.641 22.75 104.305 22.9087 104.063 23.226C103.829 23.5433 103.713 24.0147 103.713 24.64C103.713 25.284 103.825 25.7693 104.049 26.096C104.273 26.4133 104.599 26.572 105.029 26.572ZM113.508 28.252C112.323 28.252 111.422 27.958 110.806 27.37C110.19 26.782 109.882 25.9607 109.882 24.906V18.298H112.178V24.808C112.178 25.9747 112.621 26.558 113.508 26.558C113.928 26.558 114.245 26.4227 114.46 26.152C114.675 25.872 114.782 25.4753 114.782 24.962C114.782 24.5887 114.735 24.2713 114.642 24.01C114.558 23.7487 114.423 23.4547 114.236 23.128C114.04 22.764 113.891 22.4373 113.788 22.148C113.695 21.8493 113.648 21.4807 113.648 21.042H115.93C115.949 21.322 116 21.574 116.084 21.798C116.177 22.022 116.308 22.2833 116.476 22.582C116.7 22.9927 116.873 23.3707 116.994 23.716C117.115 24.052 117.176 24.4673 117.176 24.962C117.176 25.6153 117.027 26.194 116.728 26.698C116.429 27.1927 116.005 27.5753 115.454 27.846C114.903 28.1167 114.255 28.252 113.508 28.252ZM122.897 18.298C122.906 18.8113 123.009 19.2733 123.205 19.684C123.41 20.0947 123.714 20.5893 124.115 21.168C124.423 21.6067 124.67 21.9847 124.857 22.302C125.044 22.61 125.198 22.9693 125.319 23.38C125.45 23.7907 125.515 24.2387 125.515 24.724C125.515 25.4427 125.361 26.068 125.053 26.6C124.745 27.132 124.306 27.5427 123.737 27.832C123.177 28.112 122.519 28.252 121.763 28.252C121.007 28.252 120.349 28.1073 119.789 27.818C119.229 27.5287 118.8 27.1227 118.501 26.6C118.212 26.0773 118.067 25.4707 118.067 24.78C118.067 24.024 118.272 23.2867 118.683 22.568L120.657 23.254C120.461 23.7393 120.363 24.248 120.363 24.78C120.363 25.3307 120.475 25.7647 120.699 26.082C120.932 26.3993 121.287 26.558 121.763 26.558C122.23 26.558 122.57 26.4087 122.785 26.11C123 25.8113 123.107 25.396 123.107 24.864C123.107 24.304 123.009 23.828 122.813 23.436C122.626 23.0347 122.337 22.5633 121.945 22.022C121.646 21.602 121.404 21.2333 121.217 20.916C121.03 20.5987 120.872 20.2253 120.741 19.796C120.62 19.3573 120.559 18.858 120.559 18.298H122.897ZM130.929 20.818C131.545 20.818 132.086 20.9673 132.553 21.266C133.02 21.5647 133.379 21.9893 133.631 22.54C133.892 23.0813 134.023 23.702 134.023 24.402C134.023 25.578 133.701 26.516 133.057 27.216C132.422 27.9067 131.508 28.252 130.313 28.252C129.137 28.252 128.246 27.9347 127.639 27.3C127.032 26.656 126.729 25.76 126.729 24.612V18.298H129.025V21.462C129.258 21.266 129.538 21.112 129.865 21C130.201 20.8787 130.556 20.818 130.929 20.818ZM130.327 26.572C131.204 26.572 131.643 25.8487 131.643 24.402C131.643 23.7393 131.54 23.254 131.335 22.946C131.13 22.638 130.812 22.484 130.383 22.484C129.879 22.484 129.426 22.6613 129.025 23.016V24.612C129.025 25.228 129.123 25.7087 129.319 26.054C129.524 26.3993 129.86 26.572 130.327 26.572ZM140.024 18.06C140.78 18.06 141.382 18.284 141.83 18.732C142.287 19.1707 142.516 19.7773 142.516 20.552V25.13C142.516 25.7273 142.376 26.264 142.096 26.74C141.825 27.2067 141.419 27.5753 140.878 27.846C140.346 28.1167 139.697 28.252 138.932 28.252C138.195 28.252 137.555 28.1167 137.014 27.846C136.482 27.566 136.071 27.1927 135.782 26.726C135.502 26.25 135.362 25.7133 135.362 25.116C135.362 24.5373 135.521 23.9587 135.838 23.38L137.826 23.982C137.695 24.3367 137.63 24.7007 137.63 25.074C137.63 25.5313 137.737 25.8953 137.952 26.166C138.167 26.4273 138.493 26.558 138.932 26.558C139.371 26.558 139.693 26.4227 139.898 26.152C140.113 25.872 140.22 25.48 140.22 24.976V20.65C140.22 20.0433 139.996 19.74 139.548 19.74C139.081 19.74 138.848 20.0293 138.848 20.608V22.316H136.748V20.566C136.748 20.118 136.557 19.894 136.174 19.894C136.081 19.894 135.959 19.9033 135.81 19.922C135.642 19.9407 135.511 19.95 135.418 19.95C135.091 19.95 134.816 19.8707 134.592 19.712L134.9 18.102C135.077 18.158 135.264 18.186 135.46 18.186C135.591 18.186 135.726 18.172 135.866 18.144C135.913 18.144 135.992 18.1393 136.104 18.13C136.216 18.1113 136.319 18.102 136.412 18.102C136.748 18.102 137.056 18.2093 137.336 18.424C137.616 18.6293 137.812 18.9513 137.924 19.39C138.073 18.942 138.33 18.6107 138.694 18.396C139.058 18.172 139.501 18.06 140.024 18.06ZM144.489 28C144.218 27.4213 144.003 26.8007 143.845 26.138C143.686 25.466 143.607 24.682 143.607 23.786C143.607 22.806 143.723 21.98 143.957 21.308C144.199 20.636 144.633 20.0807 145.259 19.642C145.893 19.194 146.785 18.886 147.933 18.718C148.707 18.5967 149.323 18.4893 149.781 18.396C150.247 18.2933 150.625 18.1767 150.915 18.046L151.657 19.516C151.358 19.7307 150.938 19.9173 150.397 20.076C149.865 20.2347 149.235 20.342 148.507 20.398C147.62 20.482 146.967 20.622 146.547 20.818C146.127 21.0047 145.833 21.266 145.665 21.602C146.01 21.294 146.453 21.14 146.995 21.14C147.471 21.14 147.872 21.28 148.199 21.56C148.535 21.8307 148.759 22.2367 148.871 22.778C148.992 22.2367 149.253 21.8307 149.655 21.56C150.056 21.28 150.565 21.14 151.181 21.14C152.077 21.14 152.791 21.4153 153.323 21.966C153.855 22.5073 154.121 23.3333 154.121 24.444C154.121 25.1253 154.041 25.7413 153.883 26.292C153.733 26.8333 153.519 27.4027 153.239 28H151.083C151.335 27.3093 151.521 26.712 151.643 26.208C151.764 25.704 151.825 25.158 151.825 24.57C151.825 23.4033 151.484 22.82 150.803 22.82C150.233 22.82 149.949 23.198 149.949 23.954V26.11H147.793V23.954C147.793 23.5527 147.713 23.2633 147.555 23.086C147.396 22.9087 147.191 22.82 146.939 22.82C146.593 22.82 146.332 22.96 146.155 23.24C145.987 23.52 145.903 23.9587 145.903 24.556C145.903 25.1627 145.963 25.7227 146.085 26.236C146.206 26.7493 146.393 27.3373 146.645 28H144.489ZM155.19 22.582C155.19 19.5673 156.436 18.06 158.928 18.06C160.113 18.06 161.028 18.4287 161.672 19.166C162.325 19.894 162.652 21.0327 162.652 22.582C162.652 24.6727 162.344 26.4787 161.728 28H159.53C159.782 27.1973 159.973 26.376 160.104 25.536C160.235 24.6867 160.3 23.7207 160.3 22.638C160.3 21.6207 160.193 20.8833 159.978 20.426C159.763 19.9687 159.413 19.74 158.928 19.74C158.424 19.74 158.065 19.9593 157.85 20.398C157.645 20.8367 157.542 21.5833 157.542 22.638C157.542 23.7113 157.607 24.6727 157.738 25.522C157.878 26.362 158.079 27.188 158.34 28H156.142C155.853 27.2627 155.619 26.4647 155.442 25.606C155.274 24.738 155.19 23.73 155.19 22.582Z" fill="#132447"/>
</svg>
